<?xml version="1.0" encoding="UTF-8"?>
<svg width="700pt" height="700pt" version="1.1" viewBox="0 0 700 700" xmlns="http://www.w3.org/2000/svg">
 <g>
  <path d="m326.67 280c0-12.887-10.449-23.332-23.336-23.332s-23.332 10.445-23.332 23.332v93.332c0 12.887 10.445 23.336 23.332 23.336s23.336-10.449 23.336-23.336z"/>
  <path d="m396.67 256.67c12.887 0 23.332 10.445 23.332 23.332v93.332c0 12.887-10.445 23.336-23.332 23.336s-23.336-10.449-23.336-23.336v-93.332c0-12.887 10.449-23.332 23.336-23.332z"/>
  <path d="m443.33 140v-23.332c0-38.66-31.336-70-70-70h-46.664c-38.66 0-70 31.34-70 70v23.332h-70c-12.887 0-23.336 10.445-23.336 23.332s10.449 23.336 23.336 23.336v256.66c0 38.664 31.34 70 70 70h186.66c38.664 0 70-31.336 70-70v-256.66c12.887 0 23.336-10.449 23.336-23.336s-10.449-23.332-23.336-23.332zm-210 46.668v256.66c0 12.887 10.449 23.336 23.336 23.336h186.66c12.887 0 23.336-10.449 23.336-23.336v-256.66zm70-46.668v-23.332c0-12.887 10.449-23.336 23.336-23.336h46.664c12.887 0 23.336 10.449 23.336 23.336v23.332z" fill-rule="evenodd"/>
 </g>
</svg>
